<mxfile host="Electron" modified="2023-11-18T16:22:47.927Z" agent="Mozilla/5.0 (Windows NT 10.0; Win64; x64) AppleWebKit/537.36 (KHTML, like Gecko) draw.io/22.0.3 Chrome/114.0.5735.289 Electron/25.8.4 Safari/537.36" etag="i3kzrL1W21T4vM6dQNiW" version="22.0.3" type="device">
  <diagram name="Page-1" id="wRvJFr1rFRKP3TWiRXyU">
    <mxGraphModel dx="1727" dy="1038" grid="1" gridSize="10" guides="1" tooltips="1" connect="1" arrows="1" fold="1" page="1" pageScale="1" pageWidth="1169" pageHeight="827" math="0" shadow="0">
      <root>
        <mxCell id="0" />
        <mxCell id="1" parent="0" />
        <mxCell id="5xQEVJ_z66og2MHaaHaS-3" value="" style="group" vertex="1" connectable="0" parent="1">
          <mxGeometry x="160" y="99" width="850" height="704" as="geometry" />
        </mxCell>
        <mxCell id="5xQEVJ_z66og2MHaaHaS-1" value="" style="group" vertex="1" connectable="0" parent="5xQEVJ_z66og2MHaaHaS-3">
          <mxGeometry width="850" height="630" as="geometry" />
        </mxCell>
        <mxCell id="WTaNUFcB-BqIMJF_n7IG-5" value="Admits" style="rhombus;whiteSpace=wrap;html=1;" parent="5xQEVJ_z66og2MHaaHaS-1" vertex="1">
          <mxGeometry x="380" y="110" width="80" height="80" as="geometry" />
        </mxCell>
        <mxCell id="WTaNUFcB-BqIMJF_n7IG-6" value="&lt;u&gt;patient_id&lt;/u&gt;" style="ellipse;whiteSpace=wrap;html=1;" parent="5xQEVJ_z66og2MHaaHaS-1" vertex="1">
          <mxGeometry x="50" width="100" height="40" as="geometry" />
        </mxCell>
        <mxCell id="WTaNUFcB-BqIMJF_n7IG-7" value="patient_name" style="ellipse;whiteSpace=wrap;html=1;" parent="5xQEVJ_z66og2MHaaHaS-1" vertex="1">
          <mxGeometry x="170" width="100" height="40" as="geometry" />
        </mxCell>
        <mxCell id="WTaNUFcB-BqIMJF_n7IG-8" value="patient_phone" style="ellipse;whiteSpace=wrap;html=1;" parent="5xQEVJ_z66og2MHaaHaS-1" vertex="1">
          <mxGeometry x="290" width="100" height="40" as="geometry" />
        </mxCell>
        <mxCell id="WTaNUFcB-BqIMJF_n7IG-11" value="" style="endArrow=none;html=1;rounded=0;exitX=1;exitY=0.5;exitDx=0;exitDy=0;entryX=0;entryY=0.5;entryDx=0;entryDy=0;" parent="5xQEVJ_z66og2MHaaHaS-1" source="WTaNUFcB-BqIMJF_n7IG-5" target="WTaNUFcB-BqIMJF_n7IG-92" edge="1">
          <mxGeometry width="50" height="50" relative="1" as="geometry">
            <mxPoint x="460" y="109.5" as="sourcePoint" />
            <mxPoint x="580" y="150" as="targetPoint" />
          </mxGeometry>
        </mxCell>
        <mxCell id="WTaNUFcB-BqIMJF_n7IG-62" value="1" style="edgeLabel;html=1;align=center;verticalAlign=middle;resizable=0;points=[];" parent="WTaNUFcB-BqIMJF_n7IG-11" vertex="1" connectable="0">
          <mxGeometry x="-0.1375" y="4" relative="1" as="geometry">
            <mxPoint x="-2" y="-6" as="offset" />
          </mxGeometry>
        </mxCell>
        <mxCell id="WTaNUFcB-BqIMJF_n7IG-15" value="" style="endArrow=none;html=1;rounded=0;exitX=0.5;exitY=1;exitDx=0;exitDy=0;entryX=0.5;entryY=0;entryDx=0;entryDy=0;" parent="5xQEVJ_z66og2MHaaHaS-1" source="WTaNUFcB-BqIMJF_n7IG-6" target="WTaNUFcB-BqIMJF_n7IG-93" edge="1">
          <mxGeometry width="50" height="50" relative="1" as="geometry">
            <mxPoint x="420" y="300" as="sourcePoint" />
            <mxPoint x="200.0000000000001" y="120" as="targetPoint" />
          </mxGeometry>
        </mxCell>
        <mxCell id="WTaNUFcB-BqIMJF_n7IG-16" value="" style="endArrow=none;html=1;rounded=0;exitX=0.5;exitY=1;exitDx=0;exitDy=0;entryX=0.5;entryY=0;entryDx=0;entryDy=0;" parent="5xQEVJ_z66og2MHaaHaS-1" source="WTaNUFcB-BqIMJF_n7IG-7" target="WTaNUFcB-BqIMJF_n7IG-93" edge="1">
          <mxGeometry width="50" height="50" relative="1" as="geometry">
            <mxPoint x="110" y="50" as="sourcePoint" />
            <mxPoint x="200.0000000000001" y="120" as="targetPoint" />
          </mxGeometry>
        </mxCell>
        <mxCell id="WTaNUFcB-BqIMJF_n7IG-17" value="" style="endArrow=none;html=1;rounded=0;exitX=0.5;exitY=1;exitDx=0;exitDy=0;entryX=0.5;entryY=0;entryDx=0;entryDy=0;" parent="5xQEVJ_z66og2MHaaHaS-1" source="WTaNUFcB-BqIMJF_n7IG-8" target="WTaNUFcB-BqIMJF_n7IG-93" edge="1">
          <mxGeometry width="50" height="50" relative="1" as="geometry">
            <mxPoint x="230" y="50" as="sourcePoint" />
            <mxPoint x="200.0000000000001" y="120" as="targetPoint" />
          </mxGeometry>
        </mxCell>
        <mxCell id="WTaNUFcB-BqIMJF_n7IG-18" value="patient_address" style="ellipse;whiteSpace=wrap;html=1;" parent="5xQEVJ_z66og2MHaaHaS-1" vertex="1">
          <mxGeometry y="70" width="100" height="40" as="geometry" />
        </mxCell>
        <mxCell id="WTaNUFcB-BqIMJF_n7IG-19" value="" style="endArrow=none;html=1;rounded=0;exitX=0.5;exitY=1;exitDx=0;exitDy=0;entryX=0;entryY=0.5;entryDx=0;entryDy=0;" parent="5xQEVJ_z66og2MHaaHaS-1" source="WTaNUFcB-BqIMJF_n7IG-18" target="WTaNUFcB-BqIMJF_n7IG-93" edge="1">
          <mxGeometry width="50" height="50" relative="1" as="geometry">
            <mxPoint x="400" y="400" as="sourcePoint" />
            <mxPoint x="170.0000000000001" y="180" as="targetPoint" />
          </mxGeometry>
        </mxCell>
        <mxCell id="WTaNUFcB-BqIMJF_n7IG-21" value="&lt;u&gt;ward_id&lt;/u&gt;" style="ellipse;whiteSpace=wrap;html=1;" parent="5xQEVJ_z66og2MHaaHaS-1" vertex="1">
          <mxGeometry x="505" width="100" height="40" as="geometry" />
        </mxCell>
        <mxCell id="WTaNUFcB-BqIMJF_n7IG-22" value="ward_name" style="ellipse;whiteSpace=wrap;html=1;" parent="5xQEVJ_z66og2MHaaHaS-1" vertex="1">
          <mxGeometry x="630" width="100" height="40" as="geometry" />
        </mxCell>
        <mxCell id="WTaNUFcB-BqIMJF_n7IG-23" value="ward_location" style="ellipse;whiteSpace=wrap;html=1;" parent="5xQEVJ_z66og2MHaaHaS-1" vertex="1">
          <mxGeometry x="750" width="100" height="40" as="geometry" />
        </mxCell>
        <mxCell id="WTaNUFcB-BqIMJF_n7IG-30" value="&lt;u&gt;record_id&lt;/u&gt;" style="ellipse;whiteSpace=wrap;html=1;" parent="5xQEVJ_z66og2MHaaHaS-1" vertex="1">
          <mxGeometry x="20" y="590" width="100" height="40" as="geometry" />
        </mxCell>
        <mxCell id="WTaNUFcB-BqIMJF_n7IG-31" value="" style="endArrow=none;html=1;rounded=0;exitX=0.5;exitY=0;exitDx=0;exitDy=0;entryX=0.5;entryY=1;entryDx=0;entryDy=0;" parent="5xQEVJ_z66og2MHaaHaS-1" source="WTaNUFcB-BqIMJF_n7IG-30" target="WTaNUFcB-BqIMJF_n7IG-85" edge="1">
          <mxGeometry width="50" height="50" relative="1" as="geometry">
            <mxPoint x="350" y="470" as="sourcePoint" />
            <mxPoint x="200" y="520" as="targetPoint" />
          </mxGeometry>
        </mxCell>
        <mxCell id="WTaNUFcB-BqIMJF_n7IG-33" value="date_of_&lt;br&gt;examination" style="ellipse;whiteSpace=wrap;html=1;" parent="5xQEVJ_z66og2MHaaHaS-1" vertex="1">
          <mxGeometry x="160" y="590" width="100" height="40" as="geometry" />
        </mxCell>
        <mxCell id="WTaNUFcB-BqIMJF_n7IG-34" value="employees" style="rhombus;whiteSpace=wrap;html=1;" parent="5xQEVJ_z66og2MHaaHaS-1" vertex="1">
          <mxGeometry x="600" y="280" width="80" height="80" as="geometry" />
        </mxCell>
        <mxCell id="WTaNUFcB-BqIMJF_n7IG-35" value="" style="endArrow=none;html=1;rounded=0;entryX=0.5;entryY=1;entryDx=0;entryDy=0;exitX=0.5;exitY=0;exitDx=0;exitDy=0;" parent="5xQEVJ_z66og2MHaaHaS-1" source="WTaNUFcB-BqIMJF_n7IG-34" target="WTaNUFcB-BqIMJF_n7IG-92" edge="1">
          <mxGeometry width="50" height="50" relative="1" as="geometry">
            <mxPoint x="840" y="150" as="sourcePoint" />
            <mxPoint x="640" y="180" as="targetPoint" />
          </mxGeometry>
        </mxCell>
        <mxCell id="WTaNUFcB-BqIMJF_n7IG-53" value="1" style="edgeLabel;html=1;align=center;verticalAlign=middle;resizable=0;points=[];" parent="WTaNUFcB-BqIMJF_n7IG-35" vertex="1" connectable="0">
          <mxGeometry x="0.095" y="-4" relative="1" as="geometry">
            <mxPoint as="offset" />
          </mxGeometry>
        </mxCell>
        <mxCell id="WTaNUFcB-BqIMJF_n7IG-36" value="" style="endArrow=none;html=1;rounded=0;exitX=0.5;exitY=1;exitDx=0;exitDy=0;entryX=0.5;entryY=0;entryDx=0;entryDy=0;" parent="5xQEVJ_z66og2MHaaHaS-1" source="WTaNUFcB-BqIMJF_n7IG-34" target="WTaNUFcB-BqIMJF_n7IG-87" edge="1">
          <mxGeometry width="50" height="50" relative="1" as="geometry">
            <mxPoint x="840" y="150" as="sourcePoint" />
            <mxPoint x="640" y="460" as="targetPoint" />
          </mxGeometry>
        </mxCell>
        <mxCell id="WTaNUFcB-BqIMJF_n7IG-55" value="M" style="edgeLabel;html=1;align=center;verticalAlign=middle;resizable=0;points=[];" parent="WTaNUFcB-BqIMJF_n7IG-36" vertex="1" connectable="0">
          <mxGeometry x="0.055" y="9" relative="1" as="geometry">
            <mxPoint as="offset" />
          </mxGeometry>
        </mxCell>
        <mxCell id="WTaNUFcB-BqIMJF_n7IG-39" value="&lt;u&gt;doc_id&lt;/u&gt;" style="ellipse;whiteSpace=wrap;html=1;" parent="5xQEVJ_z66og2MHaaHaS-1" vertex="1">
          <mxGeometry x="460" y="560" width="100" height="40" as="geometry" />
        </mxCell>
        <mxCell id="WTaNUFcB-BqIMJF_n7IG-40" value="doc_name" style="ellipse;whiteSpace=wrap;html=1;" parent="5xQEVJ_z66og2MHaaHaS-1" vertex="1">
          <mxGeometry x="590" y="560" width="100" height="40" as="geometry" />
        </mxCell>
        <mxCell id="WTaNUFcB-BqIMJF_n7IG-41" value="doc_&lt;br&gt;qualificatiohn" style="ellipse;whiteSpace=wrap;html=1;" parent="5xQEVJ_z66og2MHaaHaS-1" vertex="1">
          <mxGeometry x="720" y="560" width="100" height="40" as="geometry" />
        </mxCell>
        <mxCell id="WTaNUFcB-BqIMJF_n7IG-43" value="salary" style="ellipse;whiteSpace=wrap;html=1;" parent="5xQEVJ_z66og2MHaaHaS-1" vertex="1">
          <mxGeometry x="750" y="400" width="100" height="40" as="geometry" />
        </mxCell>
        <mxCell id="WTaNUFcB-BqIMJF_n7IG-44" value="" style="endArrow=none;html=1;rounded=0;exitX=1;exitY=0.5;exitDx=0;exitDy=0;entryX=0.5;entryY=1;entryDx=0;entryDy=0;" parent="5xQEVJ_z66og2MHaaHaS-1" source="WTaNUFcB-BqIMJF_n7IG-87" target="WTaNUFcB-BqIMJF_n7IG-43" edge="1">
          <mxGeometry width="50" height="50" relative="1" as="geometry">
            <mxPoint x="700" y="490" as="sourcePoint" />
            <mxPoint x="790" y="330" as="targetPoint" />
          </mxGeometry>
        </mxCell>
        <mxCell id="WTaNUFcB-BqIMJF_n7IG-45" value="" style="endArrow=none;html=1;rounded=0;entryX=0.5;entryY=0;entryDx=0;entryDy=0;exitX=0.5;exitY=1;exitDx=0;exitDy=0;" parent="5xQEVJ_z66og2MHaaHaS-1" source="WTaNUFcB-BqIMJF_n7IG-87" target="WTaNUFcB-BqIMJF_n7IG-41" edge="1">
          <mxGeometry width="50" height="50" relative="1" as="geometry">
            <mxPoint x="640" y="510" as="sourcePoint" />
            <mxPoint x="800" y="450" as="targetPoint" />
          </mxGeometry>
        </mxCell>
        <mxCell id="WTaNUFcB-BqIMJF_n7IG-46" value="" style="endArrow=none;html=1;rounded=0;exitX=0.5;exitY=1;exitDx=0;exitDy=0;entryX=0.5;entryY=0;entryDx=0;entryDy=0;" parent="5xQEVJ_z66og2MHaaHaS-1" source="WTaNUFcB-BqIMJF_n7IG-87" target="WTaNUFcB-BqIMJF_n7IG-40" edge="1">
          <mxGeometry width="50" height="50" relative="1" as="geometry">
            <mxPoint x="640" y="520" as="sourcePoint" />
            <mxPoint x="810" y="460" as="targetPoint" />
          </mxGeometry>
        </mxCell>
        <mxCell id="WTaNUFcB-BqIMJF_n7IG-48" value="" style="endArrow=none;html=1;rounded=0;entryX=0.5;entryY=0;entryDx=0;entryDy=0;exitX=0.5;exitY=1;exitDx=0;exitDy=0;" parent="5xQEVJ_z66og2MHaaHaS-1" source="WTaNUFcB-BqIMJF_n7IG-87" target="WTaNUFcB-BqIMJF_n7IG-39" edge="1">
          <mxGeometry width="50" height="50" relative="1" as="geometry">
            <mxPoint x="640" y="520" as="sourcePoint" />
            <mxPoint x="650" y="570" as="targetPoint" />
          </mxGeometry>
        </mxCell>
        <mxCell id="WTaNUFcB-BqIMJF_n7IG-59" value="" style="endArrow=none;html=1;rounded=0;exitX=1;exitY=0.5;exitDx=0;exitDy=0;entryX=0;entryY=0.5;entryDx=0;entryDy=0;" parent="5xQEVJ_z66og2MHaaHaS-1" source="WTaNUFcB-BqIMJF_n7IG-93" target="WTaNUFcB-BqIMJF_n7IG-5" edge="1">
          <mxGeometry width="50" height="50" relative="1" as="geometry">
            <mxPoint x="260" y="150" as="sourcePoint" />
            <mxPoint x="380" y="149.38" as="targetPoint" />
          </mxGeometry>
        </mxCell>
        <mxCell id="WTaNUFcB-BqIMJF_n7IG-61" value="M" style="edgeLabel;html=1;align=center;verticalAlign=middle;resizable=0;points=[];" parent="WTaNUFcB-BqIMJF_n7IG-59" vertex="1" connectable="0">
          <mxGeometry x="-0.0125" y="5" relative="1" as="geometry">
            <mxPoint y="-5" as="offset" />
          </mxGeometry>
        </mxCell>
        <mxCell id="WTaNUFcB-BqIMJF_n7IG-68" value="diagonos" style="ellipse;whiteSpace=wrap;html=1;" parent="5xQEVJ_z66og2MHaaHaS-1" vertex="1">
          <mxGeometry x="280" y="590" width="100" height="40" as="geometry" />
        </mxCell>
        <mxCell id="WTaNUFcB-BqIMJF_n7IG-69" value="" style="endArrow=none;html=1;rounded=0;entryX=0.5;entryY=1;entryDx=0;entryDy=0;exitX=0.5;exitY=0;exitDx=0;exitDy=0;" parent="5xQEVJ_z66og2MHaaHaS-1" source="WTaNUFcB-BqIMJF_n7IG-92" target="WTaNUFcB-BqIMJF_n7IG-21" edge="1">
          <mxGeometry width="50" height="50" relative="1" as="geometry">
            <mxPoint x="640" y="120" as="sourcePoint" />
            <mxPoint x="550" y="190" as="targetPoint" />
          </mxGeometry>
        </mxCell>
        <mxCell id="WTaNUFcB-BqIMJF_n7IG-72" value="" style="endArrow=none;html=1;rounded=0;exitX=0.5;exitY=1;exitDx=0;exitDy=0;entryX=0.5;entryY=0;entryDx=0;entryDy=0;" parent="5xQEVJ_z66og2MHaaHaS-1" source="WTaNUFcB-BqIMJF_n7IG-22" target="WTaNUFcB-BqIMJF_n7IG-92" edge="1">
          <mxGeometry width="50" height="50" relative="1" as="geometry">
            <mxPoint x="650" y="130" as="sourcePoint" />
            <mxPoint x="640" y="120" as="targetPoint" />
          </mxGeometry>
        </mxCell>
        <mxCell id="WTaNUFcB-BqIMJF_n7IG-73" value="" style="endArrow=none;html=1;rounded=0;exitX=0.5;exitY=1;exitDx=0;exitDy=0;entryX=0.5;entryY=0;entryDx=0;entryDy=0;" parent="5xQEVJ_z66og2MHaaHaS-1" source="WTaNUFcB-BqIMJF_n7IG-23" target="WTaNUFcB-BqIMJF_n7IG-92" edge="1">
          <mxGeometry width="50" height="50" relative="1" as="geometry">
            <mxPoint x="690" y="50" as="sourcePoint" />
            <mxPoint x="640" y="130" as="targetPoint" />
          </mxGeometry>
        </mxCell>
        <mxCell id="WTaNUFcB-BqIMJF_n7IG-74" value="Fills" style="rhombus;whiteSpace=wrap;html=1;" parent="5xQEVJ_z66og2MHaaHaS-1" vertex="1">
          <mxGeometry x="390" y="450" width="80" height="80" as="geometry" />
        </mxCell>
        <mxCell id="WTaNUFcB-BqIMJF_n7IG-75" value="" style="endArrow=none;html=1;rounded=0;entryX=0;entryY=0.5;entryDx=0;entryDy=0;exitX=1;exitY=0.5;exitDx=0;exitDy=0;" parent="5xQEVJ_z66og2MHaaHaS-1" source="WTaNUFcB-BqIMJF_n7IG-74" target="WTaNUFcB-BqIMJF_n7IG-87" edge="1">
          <mxGeometry width="50" height="50" relative="1" as="geometry">
            <mxPoint x="470" y="489.78999999999996" as="sourcePoint" />
            <mxPoint x="590" y="489.78999999999996" as="targetPoint" />
          </mxGeometry>
        </mxCell>
        <mxCell id="WTaNUFcB-BqIMJF_n7IG-77" value="M" style="edgeLabel;html=1;align=center;verticalAlign=middle;resizable=0;points=[];" parent="WTaNUFcB-BqIMJF_n7IG-75" vertex="1" connectable="0">
          <mxGeometry x="0.0182" y="2" relative="1" as="geometry">
            <mxPoint y="-8" as="offset" />
          </mxGeometry>
        </mxCell>
        <mxCell id="WTaNUFcB-BqIMJF_n7IG-76" value="" style="endArrow=none;html=1;rounded=0;entryX=0;entryY=0.5;entryDx=0;entryDy=0;exitX=1;exitY=0.5;exitDx=0;exitDy=0;" parent="5xQEVJ_z66og2MHaaHaS-1" source="WTaNUFcB-BqIMJF_n7IG-85" target="WTaNUFcB-BqIMJF_n7IG-74" edge="1">
          <mxGeometry width="50" height="50" relative="1" as="geometry">
            <mxPoint x="260" y="490" as="sourcePoint" />
            <mxPoint x="590" y="500" as="targetPoint" />
          </mxGeometry>
        </mxCell>
        <mxCell id="WTaNUFcB-BqIMJF_n7IG-79" value="M" style="edgeLabel;html=1;align=center;verticalAlign=middle;resizable=0;points=[];" parent="WTaNUFcB-BqIMJF_n7IG-76" vertex="1" connectable="0">
          <mxGeometry x="0.1033" relative="1" as="geometry">
            <mxPoint x="-2" y="-10" as="offset" />
          </mxGeometry>
        </mxCell>
        <mxCell id="WTaNUFcB-BqIMJF_n7IG-85" value="Medical Record" style="shape=ext;margin=3;double=1;whiteSpace=wrap;html=1;align=center;" parent="5xQEVJ_z66og2MHaaHaS-1" vertex="1">
          <mxGeometry x="150" y="470" width="100" height="40" as="geometry" />
        </mxCell>
        <mxCell id="WTaNUFcB-BqIMJF_n7IG-32" value="" style="endArrow=none;html=1;rounded=0;entryX=0.5;entryY=1;entryDx=0;entryDy=0;exitX=0.5;exitY=0;exitDx=0;exitDy=0;" parent="5xQEVJ_z66og2MHaaHaS-1" source="WTaNUFcB-BqIMJF_n7IG-33" target="WTaNUFcB-BqIMJF_n7IG-85" edge="1">
          <mxGeometry width="50" height="50" relative="1" as="geometry">
            <mxPoint x="210" y="590" as="sourcePoint" />
            <mxPoint x="200" y="520" as="targetPoint" />
          </mxGeometry>
        </mxCell>
        <mxCell id="WTaNUFcB-BqIMJF_n7IG-67" value="" style="endArrow=none;html=1;rounded=0;entryX=0.5;entryY=1;entryDx=0;entryDy=0;exitX=0.5;exitY=0;exitDx=0;exitDy=0;" parent="5xQEVJ_z66og2MHaaHaS-1" source="WTaNUFcB-BqIMJF_n7IG-68" target="WTaNUFcB-BqIMJF_n7IG-85" edge="1">
          <mxGeometry width="50" height="50" relative="1" as="geometry">
            <mxPoint x="310" y="590" as="sourcePoint" />
            <mxPoint x="200" y="520" as="targetPoint" />
          </mxGeometry>
        </mxCell>
        <mxCell id="WTaNUFcB-BqIMJF_n7IG-87" value="Doctor" style="whiteSpace=wrap;html=1;align=center;" parent="5xQEVJ_z66og2MHaaHaS-1" vertex="1">
          <mxGeometry x="590" y="470" width="100" height="40" as="geometry" />
        </mxCell>
        <mxCell id="WTaNUFcB-BqIMJF_n7IG-92" value="Hospital_ward" style="whiteSpace=wrap;html=1;align=center;" parent="5xQEVJ_z66og2MHaaHaS-1" vertex="1">
          <mxGeometry x="590" y="130" width="100" height="40" as="geometry" />
        </mxCell>
        <mxCell id="WTaNUFcB-BqIMJF_n7IG-93" value="Patient" style="whiteSpace=wrap;html=1;align=center;" parent="5xQEVJ_z66og2MHaaHaS-1" vertex="1">
          <mxGeometry x="150" y="130" width="100" height="40" as="geometry" />
        </mxCell>
        <mxCell id="WTaNUFcB-BqIMJF_n7IG-95" value="" style="shape=link;html=1;rounded=0;exitX=0.5;exitY=1;exitDx=0;exitDy=0;entryX=0.5;entryY=0;entryDx=0;entryDy=0;" parent="5xQEVJ_z66og2MHaaHaS-1" source="WTaNUFcB-BqIMJF_n7IG-105" target="WTaNUFcB-BqIMJF_n7IG-85" edge="1">
          <mxGeometry relative="1" as="geometry">
            <mxPoint x="200" y="360.0000000000002" as="sourcePoint" />
            <mxPoint x="400" y="300" as="targetPoint" />
          </mxGeometry>
        </mxCell>
        <mxCell id="WTaNUFcB-BqIMJF_n7IG-109" value="M" style="edgeLabel;html=1;align=center;verticalAlign=middle;resizable=0;points=[];" parent="WTaNUFcB-BqIMJF_n7IG-95" vertex="1" connectable="0">
          <mxGeometry x="-0.0444" y="3" relative="1" as="geometry">
            <mxPoint x="7" as="offset" />
          </mxGeometry>
        </mxCell>
        <mxCell id="WTaNUFcB-BqIMJF_n7IG-99" value="DOB" style="ellipse;whiteSpace=wrap;html=1;align=center;" parent="5xQEVJ_z66og2MHaaHaS-1" vertex="1">
          <mxGeometry y="150" width="100" height="40" as="geometry" />
        </mxCell>
        <mxCell id="WTaNUFcB-BqIMJF_n7IG-100" value="" style="endArrow=none;html=1;rounded=0;exitX=1;exitY=0.5;exitDx=0;exitDy=0;" parent="5xQEVJ_z66og2MHaaHaS-1" source="WTaNUFcB-BqIMJF_n7IG-99" edge="1">
          <mxGeometry relative="1" as="geometry">
            <mxPoint x="240" y="300" as="sourcePoint" />
            <mxPoint x="150" y="150" as="targetPoint" />
          </mxGeometry>
        </mxCell>
        <mxCell id="WTaNUFcB-BqIMJF_n7IG-103" value="" style="endArrow=none;html=1;rounded=0;exitX=1;exitY=0.5;exitDx=0;exitDy=0;entryX=0.25;entryY=1;entryDx=0;entryDy=0;" parent="5xQEVJ_z66og2MHaaHaS-1" source="WTaNUFcB-BqIMJF_n7IG-104" target="WTaNUFcB-BqIMJF_n7IG-93" edge="1">
          <mxGeometry relative="1" as="geometry">
            <mxPoint x="140.0000000000001" y="230.0000000000001" as="sourcePoint" />
            <mxPoint x="160" y="160" as="targetPoint" />
          </mxGeometry>
        </mxCell>
        <mxCell id="WTaNUFcB-BqIMJF_n7IG-104" value="Age" style="ellipse;whiteSpace=wrap;html=1;align=center;dashed=1;" parent="5xQEVJ_z66og2MHaaHaS-1" vertex="1">
          <mxGeometry x="40" y="210" width="100" height="40" as="geometry" />
        </mxCell>
        <mxCell id="WTaNUFcB-BqIMJF_n7IG-105" value="Relationship" style="shape=rhombus;double=1;perimeter=rhombusPerimeter;whiteSpace=wrap;html=1;align=center;" parent="5xQEVJ_z66og2MHaaHaS-1" vertex="1">
          <mxGeometry x="140" y="290" width="120" height="60" as="geometry" />
        </mxCell>
        <mxCell id="WTaNUFcB-BqIMJF_n7IG-25" value="" style="endArrow=none;html=1;rounded=0;entryX=0.5;entryY=1;entryDx=0;entryDy=0;exitX=0.5;exitY=0;exitDx=0;exitDy=0;" parent="5xQEVJ_z66og2MHaaHaS-1" source="WTaNUFcB-BqIMJF_n7IG-105" target="WTaNUFcB-BqIMJF_n7IG-93" edge="1">
          <mxGeometry width="50" height="50" relative="1" as="geometry">
            <mxPoint x="200" y="290" as="sourcePoint" />
            <mxPoint x="200.0000000000001" y="180" as="targetPoint" />
          </mxGeometry>
        </mxCell>
        <mxCell id="WTaNUFcB-BqIMJF_n7IG-65" value="1" style="edgeLabel;html=1;align=center;verticalAlign=middle;resizable=0;points=[];" parent="WTaNUFcB-BqIMJF_n7IG-25" vertex="1" connectable="0">
          <mxGeometry x="0.02" y="-5" relative="1" as="geometry">
            <mxPoint as="offset" />
          </mxGeometry>
        </mxCell>
        <mxCell id="5xQEVJ_z66og2MHaaHaS-2" value="Fig: Simple ER&amp;nbsp; Diagram for Hospital Management System" style="text;html=1;align=center;verticalAlign=middle;resizable=0;points=[];autosize=1;strokeColor=none;fillColor=none;fontSize=20;" vertex="1" parent="5xQEVJ_z66og2MHaaHaS-3">
          <mxGeometry x="180" y="664" width="540" height="40" as="geometry" />
        </mxCell>
      </root>
    </mxGraphModel>
  </diagram>
</mxfile>
